<svg id="Layer_1" data-name="Layer 1" xmlns="http://www.w3.org/2000/svg" xmlns:xlink="http://www.w3.org/1999/xlink" viewBox="0 0 513.06 38.36"><defs><style>.cls-1{fill:none;}.cls-2{fill:#0079be;}.cls-3{clip-path:url(#clip-path);}.cls-4{clip-path:url(#clip-path-3);}.cls-5{fill:#fff;}</style><clipPath id="clip-path"><rect class="cls-1" x="446.85" y="0.06" width="66.21" height="34.46"/></clipPath><clipPath id="clip-path-3"><rect class="cls-1" x="446.62" y="-0.18" width="66.44" height="38.54"/></clipPath></defs><path class="cls-2" d="M2,6.55c0-.48,0-.67-.45-.67H0V.76H11.47V5.88H9.89c-.41,0-.45.19-.45.67v8.64l7.09-8a.74.74,0,0,0-.46-1.29H14.81V.76H26.69V5.88H25.51a2.13,2.13,0,0,0-1.67.72l-6.5,7.21,9.12,13.33c.5.67.86,1.1,1.76,1.1h1.22v5.12H15.53V28.24h1.4c.68,0,.86-.34.5-.9l-5.1-8L9.44,22.59v5c0,.48,0,.67.45.67h1.58v5.12H0V28.24H1.58c.41,0,.45-.19.45-.67Z"/><path class="cls-2" d="M31.06,33.36V28.24h1.58c.41,0,.45-.19.45-.67v-21c0-.48,0-.67-.45-.67H31.06V.76H54.54v9.68H50V7.17C50,6.45,49.71,6,48.85,6H40.5v8.25H50.75v5.08H40.5v8.73h8.08c1,0,1.76-.52,1.76-1.94v-2.9H54.9V33.36Z"/><path class="cls-2" d="M56.53,33.36V23.25h4.56c.49,2.9,2.66,5.41,7.22,5.41,3.84,0,4.92-2.18,4.92-3.89,0-5.83-16.43-2.7-16.43-15.18C56.8,4.13,61.18.14,67.5.14c2.62,0,5.37.62,7.22,2.61v-2h4.52v9.35H74.9a6.43,6.43,0,0,0-6.59-5c-2.3,0-4.11,1.18-4.11,3.7,0,5.55,16.44,2.75,16.44,14.66,0,6.64-5.1,10.49-11.43,10.49-3.92,0-6.36-1.19-7.85-2.85v2.23Z"/><path class="cls-2" d="M83.43,6.55c0-.48,0-.67-.45-.67H81.4V.76H92.87V5.88H91.29c-.41,0-.45.19-.45.67v8.64l7.09-8c.4-.43.31-1.29-.45-1.29H96.21V.76h11.88V5.88h-1.18a2.15,2.15,0,0,0-1.67.72l-6.5,7.21,9.12,13.33c.5.67.86,1.1,1.76,1.1h1.22v5.12H96.94V28.24h1.39c.68,0,.86-.34.5-.9l-5.1-8-2.89,3.23v5c0,.48,0,.67.45.67h1.58v5.12H81.4V28.24H83c.41,0,.45-.19.45-.67Z"/><path class="cls-2" d="M114.27,6.55c0-.48,0-.67-.45-.67h-1.58V.76h11.47V5.88h-1.58c-.41,0-.45.19-.45.67v21c0,.48,0,.67.45.67h1.58v5.12H112.24V28.24h1.58c.41,0,.45-.19.45-.67Z"/><path class="cls-2" d="M125.11,33.36V23.25h4.56c.49,2.9,2.66,5.41,7.22,5.41,3.84,0,4.92-2.18,4.92-3.89,0-5.83-16.43-2.7-16.43-15.18,0-5.46,4.38-9.45,10.7-9.45,2.62,0,5.37.62,7.22,2.61v-2h4.52v9.35h-4.34a6.43,6.43,0,0,0-6.59-5c-2.3,0-4.11,1.18-4.11,3.7,0,5.55,16.44,2.75,16.44,14.66,0,6.64-5.11,10.49-11.43,10.49-3.92,0-6.36-1.19-7.85-2.85v2.23Z"/><path class="cls-2" d="M169.4,6.55c0-.48-.05-.67-.45-.67h-1.58V.76h11.46V5.88h-1.58c-.4,0-.45.19-.45.67V22.73c0,6.46-4,11.25-12.5,11.25s-12.51-4.79-12.51-11.25V6.55c0-.48,0-.67-.45-.67h-1.58V.76h11.46V5.88h-1.58c-.4,0-.45.19-.45.67V22.68c0,3.47,1.45,5.51,5.11,5.51s5.1-2,5.1-5.51Z"/><path class="cls-2" d="M210,16.94c0,9.73-5.33,17.13-15.13,17.13s-15.13-7.4-15.13-17.13c0-10.39,7-16.94,15.13-16.94S210,6.55,210,16.94Zm-7.45-.09c0-6.41-2.8-11.06-7.68-11.06s-7.68,4.65-7.68,11.06c0,6.64,2.85,11.29,7.68,11.29S202.54,23.49,202.54,16.85Z"/><path class="cls-2" d="M247.05.76V5.88h-1.58c-.4,0-.45.19-.45.67v21c0,.48,0,.67.45.67h1.58v5.12H236.17V28.24h1.58c.41,0,.45-.19.45-.67V7.92l-7,25.44h-4.74l-7-25.44V27.57c0,.48,0,.67.46.67h1.58v5.12H210.89V28.24h1.58c.4,0,.45-.19.45-.67v-21c0-.48,0-.67-.45-.67h-1.58V.76h11.92l6,22.4,6-22.4Z"/><path class="cls-2" d="M257.75,6.55c.14-.43,0-.67-.41-.67h-1.8V.76h11.2L276,27.57a.87.87,0,0,0,.86.67h1.49v5.12H266.24V28.24h1.49c.41,0,.59-.24.45-.67l-1-3.13H257.3l-1,3.13c-.14.43,0,.67.45.67h1.49v5.12H248.18V28.24h1.58a.89.89,0,0,0,.86-.67Zm1.17,12.76h6.64L262.22,8.87Z"/><path class="cls-2" d="M302.86,33.36H279.74V28.24h1.58c.4,0,.45-.19.45-.67v-21c0-.48,0-.67-.45-.67h-1.58V.76h11.47V5.88h-1.59c-.4,0-.45.19-.45.67V28.09h7.36c1,0,1.76-.52,1.76-1.94V22.3h4.57Z"/><path class="cls-2" d="M313.55,6.55c.14-.43,0-.67-.4-.67h-1.81V.76h11.2l9.3,26.81a.88.88,0,0,0,.86.67h1.49v5.12H322V28.24h1.49c.41,0,.59-.24.45-.67l-1-3.13H313.1l-1,3.13c-.14.43,0,.67.45.67h1.49v5.12H304V28.24h1.58a.88.88,0,0,0,.86-.67Zm1.18,12.76h6.64L318,8.87Z"/><path class="cls-2" d="M337.57,6.55c0-.48,0-.67-.45-.67h-1.58V.76H347V5.88h-1.58c-.41,0-.45.19-.45.67v21c0,.48,0,.67.45.67H347v5.12H335.54V28.24h1.58c.41,0,.45-.19.45-.67Z"/><path class="cls-2" d="M376.54,33.36h-6L357.39,10.53v17c0,.48.05.67.45.67h1.58v5.12H348.59V28.24h1.58c.4,0,.45-.19.45-.67v-21c0-.48-.05-.67-.45-.67h-1.58V.76h9.34L369.76,21.4V6.55c0-.48,0-.67-.45-.67h-1.58V.76h10.84V5.88H377c-.41,0-.45.19-.45.67Z"/><path class="cls-2" d="M380,33.36V28.24h1.58c.41,0,.45-.19.45-.67v-21c0-.48,0-.67-.45-.67H380V.76h23.48v9.68h-4.56V7.17c0-.72-.27-1.14-1.13-1.14h-8.35v8.25H399.7v5.08H389.45v8.73h8.08c1,0,1.76-.52,1.76-1.94v-2.9h4.56V33.36Z"/><path class="cls-2" d="M433.38,33.36h-6L414.23,10.53v17c0,.48,0,.67.45.67h1.58v5.12H405.43V28.24H407c.4,0,.45-.19.45-.67v-21c0-.48,0-.67-.45-.67h-1.58V.76h9.35L426.61,21.4V6.55c0-.48-.05-.67-.46-.67h-1.58V.76h10.84V5.88h-1.58c-.41,0-.45.19-.45.67Z"/><g class="cls-3"><g class="cls-3"><rect class="cls-2" x="446.85" y="0.06" width="66.21" height="34.58"/><g class="cls-4"><path class="cls-5" d="M454.19,2.74l-6.76,1.93V4.14l7-2.08h.39V34.38h-.63Z"/><path class="cls-5" d="M476.51,33.84c2.38-1.71,3.37-4.5,3.37-7.74,0-7.29-4-9.65-11.11-9.65a23.65,23.65,0,0,0-5.55.63L464.33,2.4h15.11V3H464.86l-1,13.42a26,26,0,0,1,4.92-.53c7.34,0,11.73,2.56,11.73,10.23,0,3.09-.89,6-3.26,7.93Z"/><path class="cls-5" d="M506.17,31c1.78-2.7,2.68-6.5,2.68-11.16v-1.4c0-9.8-4-15.79-11.79-15.79s-11.83,6-11.83,15.79v1.4c0,5.49,1.27,9.79,3.75,12.51l-.7.1c-2.42-2.83-3.67-7.16-3.67-12.66v-1.3c0-10.24,4.34-16.42,12.45-16.42s12.41,6.13,12.41,16.42v1.3c0,5.27-1.12,9.44-3.31,12.26Z"/></g><rect class="cls-2" x="454.06" y="22.87" width="55.41" height="11.57"/><path class="cls-5" d="M471.21,29.38l-.8.15v-.21l1-.34h.13v4.27h-.34Z"/><path class="cls-5" d="M472.4,32.2c0-.63.58-1,1.05-1.16-.53-.21-.9-.49-.9-1.07s.51-1,1.29-1,1.3.36,1.3,1-.47.89-.91,1.09c.56.21,1.08.44,1.08,1.13s-.53,1.14-1.45,1.14S472.4,32.86,472.4,32.2Zm2.55,0c0-.63-.5-.79-1.22-1-.46.17-1,.44-1,1s.4.84,1.1.84S475,32.69,475,32.21ZM474.79,30c0-.45-.37-.72-1-.72s-.93.25-.93.71.38.73,1,1C474.35,30.72,474.79,30.49,474.79,30Z"/><path class="cls-5" d="M477.85,29.33v0h-2.3V29h2.65v.28l-1.82,3.95H476Z"/><path class="cls-5" d="M479.33,29.38l-.81.15v-.21l1-.34h.13v4.27h-.34Z"/><path class="cls-5" d="M482.05,28.74h.3V34h-.3Z"/><path class="cls-5" d="M484.29,33l1-1c.63-.62,1.1-1.12,1.1-1.79s-.33-.91-1-.91a2.15,2.15,0,0,0-1.05.27v-.28a2.25,2.25,0,0,1,1.13-.28,1.1,1.1,0,0,1,1.26,1.17c0,.76-.5,1.3-1.22,2l-.84.82h2.16v.3h-2.59Z"/><path class="cls-5" d="M487.35,31.25v-.2c0-1.41.69-2.09,1.65-2.09s1.62.66,1.62,2.07v.2c0,1.41-.64,2.08-1.63,2.08S487.35,32.62,487.35,31.25Zm2.92,0V31c0-1.12-.41-1.77-1.27-1.77s-1.27.63-1.27,1.75v.25c0,1.12.4,1.77,1.26,1.77S490.27,32.42,490.27,31.27Z"/><path class="cls-5" d="M491,33l1-1c.63-.62,1.1-1.12,1.1-1.79s-.34-.91-1-.91a2.08,2.08,0,0,0-1,.27v-.28a2.21,2.21,0,0,1,1.12-.28,1.11,1.11,0,0,1,1.27,1.17c0,.76-.51,1.3-1.23,2l-.83.82h2.16v.3H491Z"/><path class="cls-5" d="M494.7,29.38l-.8.15v-.21l1-.34H495v4.27h-.34Z"/><rect class="cls-5" x="446.85" y="34.51" width="66.21" height="3.85"/></g></g><path class="cls-5" d="M454.41,24.47c0-.06,0-.08-.05-.08h-.2v-.65h1.45v.65h-.2c-.05,0-.06,0-.06.08v1.1l.9-1c.05-.06,0-.16-.06-.16H456v-.65h1.51v.65h-.15a.25.25,0,0,0-.21.09l-.83.91,1.16,1.69a.24.24,0,0,0,.22.14h.16v.65h-1.76v-.65h.17c.09,0,.11,0,.07-.11l-.65-1-.37.41v.64c0,.06,0,.08.06.08h.2v.65h-1.45v-.65h.2c.05,0,.05,0,.05-.08Z"/><path class="cls-5" d="M458.09,27.87v-.65h.2c.06,0,.06,0,.06-.08V24.47c0-.06,0-.08-.06-.08h-.2v-.65h3V25h-.58v-.41c0-.09,0-.15-.14-.15h-1.06v1.05h1.3v.64h-1.3V27.2h1c.12,0,.23-.06.23-.25v-.36h.58v1.28Z"/><path class="cls-5" d="M461.32,27.87V26.59h.58a.83.83,0,0,0,.91.68c.49,0,.63-.27.63-.49,0-.74-2.08-.34-2.08-1.92a1.23,1.23,0,0,1,1.35-1.2,1.25,1.25,0,0,1,.92.33v-.25h.57v1.18h-.55a.82.82,0,0,0-.84-.63.46.46,0,0,0-.52.47c0,.7,2.09.35,2.09,1.86A1.33,1.33,0,0,1,462.93,28a1.27,1.27,0,0,1-1-.36v.28Z"/><path class="cls-5" d="M464.73,24.47c0-.06,0-.08-.06-.08h-.2v-.65h1.46v.65h-.2c-.05,0-.06,0-.06.08v1.1l.9-1c.05-.06,0-.16-.06-.16h-.16v-.65h1.51v.65h-.15a.23.23,0,0,0-.21.09l-.83.91,1.16,1.69a.24.24,0,0,0,.22.14h.16v.65h-1.77v-.65h.18c.09,0,.11,0,.06-.11l-.64-1-.37.41v.64c0,.06,0,.08.06.08h.2v.65h-1.46v-.65h.2c.06,0,.06,0,.06-.08Z"/><path class="cls-5" d="M468.64,24.47c0-.06,0-.08-.06-.08h-.2v-.65h1.46v.65h-.2c-.06,0-.06,0-.06.08v2.67c0,.06,0,.08.06.08h.2v.65h-1.46v-.65h.2c.05,0,.06,0,.06-.08Z"/><path class="cls-5" d="M470,27.87V26.59h.58a.83.83,0,0,0,.92.68c.48,0,.62-.27.62-.49,0-.74-2.08-.34-2.08-1.92a1.38,1.38,0,0,1,2.27-.87v-.25h.57v1.18h-.55a.81.81,0,0,0-.83-.63.46.46,0,0,0-.52.47c0,.7,2.08.35,2.08,1.86A1.33,1.33,0,0,1,471.62,28a1.23,1.23,0,0,1-1-.36v.28Z"/><path class="cls-5" d="M475.63,24.47c0-.06,0-.08-.06-.08h-.2v-.65h1.45v.65h-.2c-.05,0-.05,0-.05.08v2.05a1.59,1.59,0,0,1-3.17,0V24.47c0-.06,0-.08-.06-.08h-.2v-.65h1.45v.65h-.2c-.05,0-.06,0-.06.08v2.05c0,.43.19.69.65.69s.65-.26.65-.69Z"/><path class="cls-5" d="M480.77,25.79a1.93,1.93,0,1,1-3.83,0,1.93,1.93,0,1,1,3.83,0Zm-.94,0c0-.82-.36-1.41-1-1.41s-1,.59-1,1.41.36,1.43,1,1.43S479.83,26.62,479.83,25.78Z"/><path class="cls-5" d="M485.47,23.74v.65h-.2s-.06,0-.06.08v2.67c0,.06,0,.08.06.08h.2v.65h-1.38v-.65h.2s.06,0,.06-.08V24.65l-.9,3.22h-.6L482,24.65v2.49c0,.06,0,.08.06.08h.2v.65h-1.33v-.65h.2c.05,0,.05,0,.05-.08V24.47c0-.06,0-.08-.05-.08h-.2v-.65h1.51l.75,2.84.76-2.84Z"/><path class="cls-5" d="M486.83,24.47s0-.08-.06-.08h-.23v-.65H488l1.18,3.4a.12.12,0,0,0,.11.08h.19v.65H487.9v-.65h.19c.05,0,.07,0,.06-.08l-.13-.4h-1.25l-.13.4c0,.05,0,.08.06.08h.19v.65h-1.28v-.65h.2a.12.12,0,0,0,.11-.08Zm.14,1.62h.85l-.43-1.32Z"/><path class="cls-5" d="M492.54,27.87h-2.93v-.65h.2c.05,0,.06,0,.06-.08V24.47c0-.06,0-.08-.06-.08h-.2v-.65h1.46v.65h-.21c-.05,0-.05,0-.05.08V27.2h.93c.12,0,.22-.06.22-.25v-.48h.58Z"/><path class="cls-5" d="M493.9,24.47s0-.08,0-.08h-.23v-.65H495l1.18,3.4a.1.1,0,0,0,.1.08h.19v.65H495v-.65h.19s.08,0,.06-.08l-.13-.4h-1.25l-.13.4c0,.05,0,.08.06.08H494v.65h-1.28v-.65h.2a.1.1,0,0,0,.11-.08Zm.15,1.62h.84l-.43-1.32Z"/><path class="cls-5" d="M496.94,24.47c0-.06,0-.08-.06-.08h-.2v-.65h1.46v.65h-.2c-.05,0-.06,0-.06.08v2.67c0,.06,0,.08.06.08h.2v.65h-1.46v-.65h.2c.06,0,.06,0,.06-.08Z"/><path class="cls-5" d="M501.88,27.87h-.76L499.45,25v2.16c0,.06,0,.08.06.08h.2v.65h-1.37v-.65h.2s.06,0,.06-.08V24.47c0-.06,0-.08-.06-.08h-.2v-.65h1.18l1.5,2.61V24.47c0-.06,0-.08-.06-.08h-.2v-.65h1.38v.65h-.2c-.05,0-.06,0-.06.08Z"/><path class="cls-5" d="M502.32,27.87v-.65h.2c.05,0,.06,0,.06-.08V24.47c0-.06,0-.08-.06-.08h-.2v-.65h3V25h-.58v-.41c0-.09,0-.15-.14-.15h-1.06v1.05h1.3v.64h-1.3V27.2h1c.12,0,.22-.06.22-.25v-.36h.58v1.28Z"/><path class="cls-5" d="M509.08,27.87h-.76L506.66,25v2.16c0,.06,0,.08.06.08h.2v.65h-1.38v-.65h.2c.05,0,.06,0,.06-.08V24.47c0-.06,0-.08-.06-.08h-.2v-.65h1.19l1.5,2.61V24.47c0-.06,0-.08-.06-.08H508v-.65h1.37v.65h-.2c-.05,0-.06,0-.06.08Z"/></svg>
